# xmcd
#
# Track frame offsets:
#	150
#	17158
#	38694
#	50992
#	68363
#	81694
#	94606
#	108005
#	133638
#	147525
#	168309
#	180511
#	193354
#	214806
#	229459
#	251720
#
# Disc length: 3765 seconds
#
# Revision: 1
# Processed by: cddbd v1.5.2PL0 Copyright (c) Steve Scherf et al.
# Submitted via: audiograbber 1.83.01
#
DISCID=eb0eb310
DTITLE=Various Artist - The Essential Blues Vol. 3 CD2
DYEAR=1900
DGENRE=Blues
TTITLE0=Robert Ward - Toehold
TTITLE1=Lonnie Brooks - Voodoo Daddy
TTITLE2=Little Milton - We're Gonna Make It
TTITLE3=Robert Cray - Change Of Heart, Change Of Mind
TTITLE4=Otis Span - Keep Your Hands Out Of My Pocket
TTITLE5=Allen Youngblood - Screamin' And Hollerin' Blues
TTITLE6=Jimmy Reed - You've Got Me Dizzy
TTITLE7=Ruth Brown - I Don't Know
TTITLE8=Lightnin' Hopkins - Katie Mae
TTITLE9=Maria Muldaur Dr. John - Best Of Life
TTITLE10=Robert Lockwood Jr. - Driving Wheel
TTITLE11=Professor Longhair - Go To The Mardi Gras
TTITLE12=Taj Mahal - Honky Tonk Woman
TTITLE13=Clarence 'Gatemouth' Browen - C Jam Blues
TTITLE14=Charles Brown - Fool's Paradise
TTITLE15=Junior Kimbrough - Meet Me In The City
EXTD=
EXTT0=
EXTT1=
EXTT2=
EXTT3=
EXTT4=
EXTT5=
EXTT6=
EXTT7=
EXTT8=
EXTT9=
EXTT10=
EXTT11=
EXTT12=
EXTT13=
EXTT14=
EXTT15=
PLAYORDER=
